# xmcd
#
# Track frame offsets:
#	150
#	17624
#	35108
#	50129
#	65352
#	79910
#	91466
#	108431
#	124718
#	140568
#	153711
#	169014
#	182784
#	198191
#	211285
#	226621
#	243535
#	262593
#	278027
#	296253
#	313447
#
# Disc length: 4404 seconds
#
# Revision: 0
# Processed by: cddbd v1.5.2PL0 Copyright (c) Steve Scherf et al.
# Submitted via: EZCDAudioConverter 3.1.0.1
#
DISCID=2d113215
DTITLE=Hott Urban Volume 13 CAN
DYEAR=2016
DGENRE=blues
TTITLE0=Beyonce - Sorry
TTITLE1=Kevin Gates - Really Really
TTITLE2=Kent Jones - Don't Mind
TTITLE3=Chris Brown - Grass Ain't Greener
TTITLE4=Janet Jackson - Dammn Baby [LP Edit Bass Intro Mix]
TTITLE5=Madeintyo - Uber Everywhere
TTITLE6=Fetty Wap - Wake Up
TTITLE7=Fifth Harmony ft. Ty Dolla $ign - Work From Home
TTITLE8=Alicia Keys - In Common
TTITLE9=Future - Wicked
TTITLE10=K Camp ft. 2 Chainz - 5 Minutes
TTITLE11=Dae Dae - Wat U Mean
TTITLE12=TWENTY88 - On The Way
TTITLE13=Jeremih - Pass Dat
TTITLE14=Trinidad James ft. Mystikal and Lil Dicky - Just A Lil Thick ($he Jui
TTITLE14=cy)
TTITLE15=2 Chainz ft. Lil Wayne - MFN Right [Remix]
TTITLE16=G-Eazy ft. Chris Brown and Tory Lanez - Drifting
TTITLE17=Bernard Flowers - This Feeling
TTITLE18=Troy Ave - Good Girl Gone Bad
TTITLE19=Rae Sremmurd - Look Alive
TTITLE20=Empire Cast ft. Yazz and Yo Gotti - All Nite [Yo Gotti Remix]
EXTD=
EXTT0=
EXTT1=
EXTT2=
EXTT3=
EXTT4=
EXTT5=
EXTT6=
EXTT7=
EXTT8=
EXTT9=
EXTT10=
EXTT11=
EXTT12=
EXTT13=
EXTT14=
EXTT15=
EXTT16=
EXTT17=
EXTT18=
EXTT19=
EXTT20=
PLAYORDER=
